<svg xmlns="http://www.w3.org/2000/svg" width="1280" height="720" viewBox="0 0 1280 720"><g><path fill="#EA11DA" d="M695.625 302.016s.319 106.762 0 141.108c41.628 3.305 45.837-19.567 43.305-17.668-4.458 8.563 39.43.839 22.651-28.524 25.168-6.711 13.842-24.362 13.842-24.362-5.453-8.356 4.614-26.812-10.067-34.782 0-19.715-13.003-26.426-24.748-25.587-3.356-22.232-23.909-18.037-25.587-20.134-15.1-8.39-19.396 9.949-19.396 9.949z"/><path fill="#0BE4F4" d="M660.891 301.583s-.319 106.762 0 141.108c-41.628 3.305-45.837-19.567-43.305-17.668 4.457 8.563-39.43.839-22.651-28.524-25.168-6.711-13.842-24.362-13.842-24.362 5.453-8.356-4.614-26.812 10.067-34.782 0-19.715 13.003-26.426 24.748-25.587 3.356-22.232 23.909-18.037 25.587-20.134 15.101-8.39 19.396 9.949 19.396 9.949z"/><path fill="#fff" d="M725.684 440.154c.124-4.974.751-9.2-2.317-13.4-3.288-4.502-8.878-6.177-11.625-11.297-.445-.83-1.705-.092-1.26.737 1.739 3.24 4.341 5.36 7.267 7.497 2.326 1.699 4.283 3.394 5.737 5.926 1.707 2.972.82 7.288.739 10.538-.024.941 1.436.939 1.459-.001zM717.732 425.172c-5.226-.944-12.112 5.319-7.079 9.997 1.55 1.441 4.017 1.906 5.992 1.199 2.257-.809 2.832-3.08 2.436-5.233-.17-.925-1.577-.532-1.408.388.695 3.78-3.503 4.658-5.988 2.614-4.158-3.42 1.975-8.224 5.659-7.558.92.167 1.313-1.24.388-1.407zM715.751 421.262c.497-4.216 3.881-7.131 8.079-7.24.94-.024.942-1.484 0-1.46-5.062.131-8.947 3.679-9.539 8.7-.11.933 1.351.923 1.46 0zM764.099 414.441c.941 0 .941-1.46 0-1.46s-.942 1.46 0 1.46zM764.293 413.007c-3.136-.924-5.896-.865-8.83.621-3.486 1.766-5.955 4.249-10.014 4.832-.929.133-.532 1.54.388 1.408 6.832-.982 10.688-7.627 18.068-5.453.905.267 1.289-1.142.388-1.408zM751.74 414.266c-10.41 1.966-10.202-11.306-12.945-17.947-.354-.857-1.767-.482-1.408.388 3.142 7.609 3.013 21.181 14.74 18.966.925-.174.533-1.581-.387-1.407zM751.095 416.119h2.936c.941 0 .941-1.46 0-1.46h-2.936c-.941 0-.941 1.46 0 1.46zM743.41 406.774c1.656-6.017 10.223-6.648 9.674-13.617-.073-.932-1.534-.939-1.46 0 .286 3.631-2.164 5.137-4.836 6.979-2.31 1.592-4.03 3.503-4.786 6.25-.25.909 1.158 1.295 1.408.388zM741.557 406.58v2.936c0 .941 1.46.941 1.46 0v-2.936c-.001-.941-1.46-.941-1.46 0zM737.957 428.97c-2.165-6.762-10.283-5.212-15.805-5.15-.941.011-.942 1.47 0 1.46 4.684-.052 12.53-1.751 14.397 4.078.286.893 1.696.511 1.408-.388zM736.523 429.584l.419 2.097c.031.939 1.491.942 1.46 0l-.419-2.097c-.031-.939-1.491-.942-1.46 0zM696.514 405.952c3.116-1.341 8.032-2.337 8.549 2.306.103.925 1.564.935 1.46 0-.661-5.929-6.464-5.409-10.746-3.566-.862.371-.118 1.628.737 1.26zM698.797 405.547c-1.248 5.832 4.687 7.607 9.335 6.441 2.447-.614 4.776-2.143 5.916-4.439 1.498-3.018.051-6.375-1.752-8.888-.543-.757-1.81-.03-1.26.737 1.471 2.051 2.683 4.449 1.91 7.007-.615 2.035-2.674 3.326-4.565 3.986-3.49 1.218-9.226.456-8.175-4.455.195-.919-1.212-1.309-1.409-.389zM775.223 387.813c-2.706-.005-5.531.107-8.121-.794-2.825-.982-4.721-4.105-6.35-6.395-.541-.76-1.807-.032-1.26.737 1.742 2.45 3.511 5.093 6.187 6.605 2.775 1.569 6.491 1.301 9.544 1.307.941.002.941-1.458 0-1.46zM749.728 398.191c.021-3.163.678-7.323-1.7-9.889-3.939-4.25-9.445-4.05-14.182-6.68-.824-.457-1.56.803-.737 1.26 1.505.836 3.021 1.344 4.685 1.779 2.585.676 4.72 1.556 7.031 2.88 4.114 2.358 3.47 6.587 3.443 10.651-.006.941 1.454.94 1.46-.001zM736.942 384.349c-.095 3.086-1.609 5.723-2.491 8.615-.275.903 1.134 1.286 1.408.388.925-3.032 2.443-5.767 2.543-9.003.029-.942-1.431-.939-1.46 0zM735.252 389.286c-4.947-4.912-10.261-1.602-14.455 2.517-.672.66.36 1.692 1.032 1.032 3.533-3.469 8.032-6.844 12.391-2.517.668.663 1.701-.369 1.032-1.032zM726.063 390.415c.775 4.202.775 8.414 0 12.615-.17.92 1.237 1.313 1.408.388.823-4.464.823-8.928 0-13.391-.172-.925-1.578-.532-1.408.388zM726.347 396.203c-2.858.054-4.802 1.656-5.737 4.311-.314.89 1.097 1.27 1.408.388.716-2.033 2.152-3.199 4.33-3.239.939-.018.941-1.478-.001-1.46zM714.97 405.952c1.766-.839 4.041-1.314 5.293.577.517.781 1.782.051 1.26-.737-1.739-2.625-4.744-2.31-7.291-1.101-.849.404-.107 1.663.738 1.261zM728.309 424.423c-1.232-5.879 6.962-7.971 10.525-4.323.659.674 1.69-.359 1.032-1.032-4.649-4.759-14.489-1.528-12.965 5.744.193.92 1.601.53 1.408-.389zM757.077 413.292c.301 3.367-.644 6.501-3.414 8.598-.74.56-.014 1.829.737 1.26 3.179-2.407 4.488-5.928 4.137-9.858-.084-.93-1.544-.938-1.46 0zM747.95 415.338c3.334-5.027 8.769-6.286 14.471-6.35.941-.01.942-1.47 0-1.46-6.258.07-12.111 1.615-15.731 7.073-.522.787.743 1.517 1.26.737zM767.739 387.059c.888-4.583 1.045-9.312-3.272-12.15-.789-.519-1.52.746-.737 1.26 3.709 2.438 3.348 6.641 2.601 10.501-.178.921 1.229 1.313 1.408.389zM766.826 378.425c1.695-2.746 4.655-3.724 7.759-3.414.937.094.927-1.367 0-1.46-3.623-.362-7.07.977-9.019 4.137-.496.804.767 1.536 1.26.737zM739.635 383.735c-1.249-5.994-2.425-14.478 4.279-17.632.851-.401.11-1.659-.737-1.26-7.355 3.46-6.336 12.628-4.95 19.281.192.921 1.599.53 1.408-.389zM738.796 371.151c-2.1-5.821-11.964-5.919-16-2.231-1.666 1.522.258 4.55.781 6.086 1.59 4.67-.925 8.87-6.082 6.446-3.186-1.498-3.325-6.502-3.866-9.462-.169-.925-1.576-.532-1.408.388.559 3.056.744 7.532 3.53 9.591 2.377 1.756 5.543 2.91 8.073.95 2.122-1.644 1.716-6.104 1.16-8.301-.757-2.992-2.006-4.965 2.396-6.344 3.123-.979 8.75-.223 10.008 3.265.317.879 1.728.5 1.408-.388zM695.416 355.197c6.376-4.057 15.99-4.694 16.301-14.053.031-.942-1.429-.939-1.46 0-.282 8.485-9.824 9.131-15.578 12.793-.791.503-.059 1.767.737 1.26zM705.163 349.482c1.942 3.78 2.001 8.076 1.578 12.216-.096.936 1.365.927 1.46 0 .451-4.417.286-8.935-1.778-12.952-.43-.838-1.689-.1-1.26.736zM695.371 366.15c3.863 3.185 6.177 7.144 7.782 11.842.302.885 1.713.505 1.408-.388-1.681-4.922-4.104-9.145-8.158-12.487-.72-.593-1.759.434-1.032 1.033zM773.545 353.015c-6.493.285-13.333-1.384-18.36-5.659-.713-.606-1.75.421-1.032 1.032 5.325 4.528 12.49 6.389 19.392 6.086.937-.041.941-1.501 0-1.459zM764.542 330.289c-4.961 1.998-7.066 7.213-10.809 10.674-.692.64.342 1.67 1.032 1.032 3.485-3.223 5.568-8.448 10.165-10.299.862-.346.486-1.759-.388-1.407zM750.315 314.432c.05 3.831-.976 7.55-3.804 10.259-4.074 3.904-8.759.151-11.195-3.497-.52-.778-1.785-.049-1.26.737 2.38 3.564 6.524 7.466 11.154 5.3 4.818-2.254 6.63-7.818 6.565-12.799-.012-.94-1.472-.941-1.46 0zM740.139 308.115c-6.241-.279-10.802 1.007-13.912 6.716-3.901 7.164-.676 12.33 2.795 18.711.45.827 1.71.09 1.26-.737-3.274-6.019-6.039-10.323-2.795-17.237 2.525-5.381 7.237-6.236 12.651-5.993.942.042.938-1.418.001-1.46zM721.102 294.015c2.096 4.591 2.589 14.978-3.339 16.965-.888.298-.507 1.708.388 1.408 7.02-2.353 6.725-13.604 4.211-19.109-.39-.856-1.647-.113-1.26.736zM696.581 317.603c7.573-10.896 23.783-1.88 20.059 10.344-.275.903 1.134 1.286 1.408.388 4.228-13.873-14.255-23.657-22.727-11.468-.539.774.727 1.503 1.26.736zM695.26 322.932c7.131 3.073 14.302-1.755 13.237-9.633-.126-.929-1.532-.532-1.408.388.888 6.569-5.216 10.517-11.092 7.984-.855-.368-1.599.889-.737 1.261zM762.744 354.47c-3.91 4.352-11.618 4.365-16.907 3.168-.917-.207-1.306 1.2-.388 1.408 5.781 1.308 14.049 1.219 18.328-3.543.626-.699-.403-1.735-1.033-1.033zM751.406 358.342c.102-9.705-12.299-6.541-16.347-1.355-.572.733.453 1.774 1.032 1.032 3.152-4.038 13.942-8.008 13.855.323-.01.942 1.45.941 1.46 0zM738.646 356.051c-.37 2.374-1.206 5.261-3.685 6.202-.871.33-.494 1.742.388 1.408 3.011-1.142 4.24-4.245 4.704-7.221.145-.922-1.262-1.317-1.407-.389zM709.149 346.068c6.426.641 13.462-5.411 16.15-10.848.416-.841-.843-1.581-1.26-.737-2.475 5.006-8.961 10.717-14.89 10.125-.937-.093-.928 1.368 0 1.46zM722.378 306.613c3.903.746 7.414-1.554 8.029-5.543.142-.921-1.265-1.316-1.408-.388-.485 3.151-3.048 5.133-6.233 4.524-.92-.177-1.312 1.23-.388 1.407zM721.927 300.172c-5.721-2.054-9.899 3.907-12.15 8.305-.428.836.831 1.575 1.26.737 1.938-3.786 5.48-9.438 10.501-7.634.889.318 1.268-1.093.389-1.408zM713.292 302.342c-4.574-2.353-4.876-8.526-6.869-12.742-.402-.851-1.66-.109-1.26.737 2.139 4.523 2.441 10.718 7.393 13.265.835.431 1.574-.829.736-1.26zM707.68 297.99c-2.189 3.13-3.765 6.538-3.455 10.436.074.932 1.534.939 1.46 0-.291-3.659 1.208-6.77 3.256-9.699.54-.774-.726-1.502-1.261-.737zM724.804 306.942c.779 2.827 1.202 5.681 1.232 8.615.01.941 1.469.942 1.46 0-.031-3.061-.472-6.052-1.284-9.003-.25-.907-1.658-.521-1.408.388zM748.578 323.216c-3.095-.075-4.762-2.479-5.169-5.337-.132-.929-1.538-.532-1.408.388.502 3.526 2.869 6.318 6.576 6.408.943.024.941-1.436.001-1.459zM741.583 325.43c-.433 2.306-.09 4.575 1.935 6.012 2.061 1.463 4.643 1.953 6.964 2.856.879.342 1.255-1.07.388-1.408-3.578-1.392-8.828-2.019-7.88-7.072.173-.92-1.234-1.313-1.407-.388zM771.254 344.215c-3.909 1.516-12.618 4.474-15.115-.504-.422-.842-1.681-.102-1.26.737 2.904 5.789 12.212 2.94 16.764 1.174.866-.336.489-1.748-.389-1.407zM761.259 330.98c-1.815-1.502-3.115-3.378-4.007-5.55-.353-.858-1.765-.483-1.408.388.989 2.407 2.364 4.524 4.382 6.195.72.595 1.759-.432 1.033-1.033zM757.613 329.534c-1.248.44-2.332 1.244-2.953 2.433-.435.833.825 1.572 1.26.737.443-.85 1.18-1.444 2.081-1.762.881-.311.502-1.722-.388-1.408zM719.744 341.144c.044 3.783.686 7.642-1.578 10.957-.532.78.733 1.509 1.26.737 2.423-3.549 1.825-7.628 1.777-11.694-.01-.941-1.47-.942-1.459 0zM721.927 337.504c-1.989-.692-4.007-2.017-4.078-4.33-.029-.939-1.489-.942-1.46 0 .093 3.013 2.512 4.82 5.15 5.737.891.311 1.271-1.1.388-1.407zM701.39 350.423c-4.598-6.396.262-15.462 7.114-17.804.885-.303.505-1.713-.388-1.408-7.671 2.622-13.156 12.756-7.987 19.948.544.758 1.811.03 1.261-.736zM705.483 334.013v2.936c0 .941 1.46.941 1.46 0v-2.936c-.001-.941-1.46-.941-1.46 0zM696.273 332.975c2.414.365 4.95.164 6.583-1.866.584-.726-.442-1.766-1.032-1.032-1.294 1.608-3.233 1.782-5.162 1.49-.921-.139-1.317 1.268-.389 1.408zM707.665 356.109c4.143-.735 8.692-1.032 9.589 4.104.162.926 1.568.532 1.408-.388-1.046-5.989-6.451-6-11.384-5.124-.927.165-.533 1.572.387 1.408zM700.534 372.888c2.925-1.024 5.376-2.818 7.148-5.369.539-.775-.728-1.504-1.26-.737-1.543 2.222-3.73 3.807-6.275 4.698-.883.309-.504 1.72.387 1.408zM713.763 378.166c-4.545.163-7.382 4.37-7.022 8.7.077.931 1.538.939 1.46 0-.291-3.496 1.772-7.104 5.562-7.24.938-.034.942-1.494 0-1.46zM738.796 376.153c1.894-5.912 11.562-5.279 13.274.419.27.899 1.679.516 1.408-.388-2.135-7.109-13.756-7.702-16.089-.419-.289.899 1.121 1.281 1.407.388zM744.912 372.184c-.031 5.395-.221 9.822 4.976 12.795.818.468 1.553-.793.737-1.26-4.7-2.689-4.28-6.752-4.253-11.534.005-.942-1.454-.942-1.46-.001zM697.108 387.679c6.248-2.134 9.38 6.53 9.193 11.351-.03.765 1.157.762 1.186 0 .218-5.605-3.644-14.903-10.695-12.495-.719.246-.41 1.392.316 1.144zM704.115 393.468c4.076-.03 8.043-.466 11.939-1.704.894-.284.512-1.693-.388-1.408-3.771 1.198-7.606 1.623-11.551 1.652-.941.007-.941 1.467 0 1.46zM712.789 427.747c.359-2.025.085-4.051-1.446-5.534-1.514-1.467-3.787-1.587-5.744-1.236-.926.166-.532 1.573.388 1.408 1.501-.269 3.118-.167 4.323.861 1.185 1.011 1.325 2.679 1.071 4.114-.163.92 1.244 1.313 1.408.387zM708.419 422.939c-.052 2.788-1.82 4.365-4.498 4.749-.929.133-.532 1.54.388 1.408 3.327-.477 5.506-2.766 5.569-6.157.018-.942-1.442-.94-1.459 0zM707.018 442.014c-5.132.983-5.648-5.812-5.368-9.363.074-.939-1.386-.932-1.46 0-.371 4.719.947 11.971 7.216 10.771.925-.177.532-1.584-.388-1.408zM729.058 322.823c-2.952-.815-5.963-1.353-8.809-2.517-.872-.356-1.247 1.056-.388 1.408 2.846 1.164 5.857 1.701 8.809 2.517.908.25 1.294-1.158.388-1.408zM730.961 330.129h5.872c.941 0 .941-1.46 0-1.46h-5.872c-.941 0-.941 1.46 0 1.46zM734.426 330.238c.452 6.168 2.186 11.047 7.912 14.053.833.437 1.57-.823.737-1.26-5.264-2.764-6.774-7.134-7.189-12.793-.069-.933-1.529-.94-1.46 0zM728.16 327.527c-.388 2.088-1.694 3.608-3.91 3.659-.94.022-.942 1.482 0 1.46 2.833-.066 4.809-1.995 5.318-4.73.171-.921-1.236-1.314-1.408-.389zM748.05 352.889c-.329-2.816.788-5.276 3.414-6.501.853-.397.111-1.656-.737-1.26-3.04 1.417-4.52 4.48-4.137 7.761.108.923 1.569.934 1.46 0zM738.931 341.253c-5.599.694-7.672 6.418-9.858 10.848-.415.841.844 1.581 1.26.737 1.866-3.78 3.741-9.523 8.598-10.125.921-.115.932-1.576 0-1.46zM735.35 342.957c-2.775-1.116-4.771-3.552-4.104-6.653.197-.918-1.21-1.308-1.408-.388-.846 3.937 1.576 7.022 5.124 8.448.874.352 1.25-1.061.388-1.407zM730.219 349.856c-.934-.961-1.662-2.097-2.403-3.208-.519-.779-1.784-.049-1.26.737.808 1.212 1.611 2.455 2.631 3.503.656.676 1.688-.357 1.032-1.032zM754.586 358.987c-.821 4.127.645 7.779 4.53 9.633.845.403 1.586-.855.737-1.26-3.274-1.563-4.559-4.468-3.859-7.984.183-.92-1.224-1.312-1.408-.389zM770.113 353.376c-1.618 2.843-3.257 5.821-6.92 5.93-.939.028-.942 1.488 0 1.46 4.244-.127 6.272-3.301 8.181-6.653.465-.819-.796-1.555-1.261-.737zM756.323 365.188c-2.735-.413-5.163.104-7.002 2.285-.603.715.424 1.753 1.032 1.032 1.487-1.763 3.346-2.247 5.582-1.91.92.14 1.316-1.266.388-1.407zM769.5 374.91c-2.719-1.86-1.61-5.197.839-6.709.799-.493.067-1.757-.737-1.26-3.446 2.128-4.465 6.749-.839 9.23.78.532 1.509-.733.737-1.261zM766.121 393.93c-3.633-.543-6.426-3.231-10.067-3.775-.92-.138-1.316 1.269-.388 1.408 3.633.543 6.426 3.231 10.067 3.775.921.137 1.317-1.269.388-1.408zM760.039 393.802l-2.097 7.55c-.174.92 1.233 1.312 1.408.388l2.097-7.55c.174-.919-1.233-1.312-1.408-.388zM729.174 367.57c.385-3.941-2.28-6.92-5.989-7.835-.914-.225-1.302 1.182-.388 1.408 3.132.773 5.242 3.109 4.917 6.427-.091.937 1.369.928 1.46 0zM713.133 356.296c-1.722 3.625-2.219 7.976.953 10.952.686.643 1.72-.387 1.032-1.032-2.674-2.508-2.166-6.149-.725-9.183.402-.846-.857-1.587-1.26-.737zM739.544 400.843c-2.875-.521-4.575 2.203-5.776 4.385-.757 1.374-1.385 2.819-2.215 4.153-.959 1.541-1.431.702-2.06-.652-.396-.853-1.654-.111-1.26.737 1.247 2.685 3.134 2.976 4.719.429 1.247-2.004 3.058-8.214 6.203-7.644.921.166 1.314-1.24.389-1.408zM703.411 412.227c.656 2.943-.345 5.866-3.265 7.072-.857.354-.482 1.767.388 1.408 3.685-1.522 5.132-5.068 4.285-8.868-.205-.918-1.612-.529-1.408.388zM738.46 339.677c3.192-1.591 6.308-3.053 9.924-2.024.907.258 1.292-1.15.388-1.408-3.993-1.137-7.503.403-11.049 2.171-.842.42-.103 1.679.737 1.261zM748.149 339.952c3.493.919 4.818 4.932 8.389 5.872.911.24 1.298-1.168.388-1.408-3.493-.919-4.818-4.932-8.389-5.872-.911-.24-1.297 1.168-.388 1.408zM707.696 358.896c-2.991.421-5.961.697-8.84-.419-.879-.341-1.256 1.071-.388 1.408 3.122 1.211 6.374.876 9.616.419.929-.131.533-1.537-.388-1.408z"/><path stroke="#fff" stroke-width="1.946" stroke-miterlimit="10" fill="none" d="M636.925 291.942l-.42 38.172"/><path stroke="#fff" stroke-width="2" stroke-miterlimit="10" fill="none" d="M637 317h22M659 297h-19M653 297v13"/><path stroke="#fff" stroke-width="1.946" stroke-miterlimit="10" fill="none" d="M636.019 310.692l-15.298.11M625.532 310.692l.42 27.056M625.532 331.036l-17.617.42"/><path stroke="#fff" stroke-width="2" stroke-miterlimit="10" fill="none" d="M628 295v10M645 317v21"/><path stroke="#fff" stroke-width="1.946" stroke-miterlimit="10" fill="none" d="M644.861 328.939l9.732.42"/><path stroke="#fff" stroke-width="2" stroke-miterlimit="10" fill="none" d="M650 329v19"/><path stroke="#fff" stroke-width="1.946" stroke-miterlimit="10" fill="none" d="M660.891 356.516l-19.58-.312M616.908 310.768l-.185 14.883M596.105 320.55l20.618-.036"/><path stroke="#fff" stroke-width="2" stroke-miterlimit="10" fill="none" d="M617 309v10"/><path stroke="#fff" stroke-width="1.946" stroke-miterlimit="10" fill="none" d="M644.861 333.553l-12.198-.419M584.559 343.201l22.828.419M599.945 320.55l-.42 16.778"/><path stroke="#fff" stroke-width="2" stroke-miterlimit="10" fill="none" d="M614 341h11M620 341v28M620 358h-18M611 358v12M584 366h20M599 343v11M600 350h-11M594 350v10M602 424v-22M602 410h18M611 398v12M589 367v16M585 390h22M600 378v13M655 356v25M655 370h-22M637 348v22M616 410v13M616 418h17M625 415v20"/><path stroke="#fff" stroke-width="1.946" stroke-miterlimit="10" fill="none" d="M654.593 376.339l-18.574-.669"/><path stroke="#fff" stroke-width="2" stroke-miterlimit="10" fill="none" d="M645 375v25M645 390h-23M630 378v11M630 383h-16"/><path stroke="#fff" stroke-width="1.946" stroke-miterlimit="10" fill="none" d="M644.861 395.634l9.732.419"/><path stroke="#fff" stroke-width="2" stroke-miterlimit="10" fill="none" d="M650 396v20"/><path stroke="#fff" stroke-width="1.946" stroke-miterlimit="10" fill="none" d="M625.952 404.852l-.068 13.483"/><path stroke="#fff" stroke-width="2" stroke-miterlimit="10" fill="none" d="M637 391v19M624 371v12M600 383h6M620 350h10M637 396h-12M650 410h-8M652 442v-13M625 426h13M661 418h-12M658 418v12"/><g fill="#0BE4F4"><path d="M625.745 246.536c.509 1.754.302 3.318-.582 4.701-.885 1.384-2.286 2.346-4.233 2.925-.811.241-1.59.385-2.34.429-.752.045-1.48-.025-2.183-.2-.776-.192-1.432-.504-1.954-.947-.523-.442-.913-1.001-1.166-1.68-.211-.567-.278-1.112-.197-1.634.079-.522.316-1.019.71-1.489.353-.42.788-.791 1.303-1.112.515-.321 1.126-.59 1.831-.804.43-.131.857-.21 1.277-.238.422-.028.814.008 1.175.109.424.118.768.295 1.035.527.267.232.458.531.575.897.17.532.075 1.042-.277 1.532-.353.49-.846.828-1.484 1.019-.408.122-.773.166-1.094.13-.322-.036-.85-.378-.85-.378l.343-.051.313-.078c.447-.137.757-.305.928-.509.172-.203.209-.454.109-.752-.096-.287-.284-.471-.566-.55-.282-.08-.657-.049-1.122.093-.31.095-.595.222-.854.382s-.466.347-.621.551c-.183.241-.306.491-.357.745-.052.255-.033.509.057.761.29.812.811 1.317 1.556 1.523.746.205 1.72.12 2.932-.242 1.186-.354 2.032-.986 2.546-1.91.514-.924.617-1.912.292-2.968-.195-.633-.542-1.153-1.043-1.556-.503-.403-1.158-.689-1.955-.862-.662-.144-1.369-.192-2.109-.13s-1.513.216-2.316.464c-.974.301-1.828.682-2.555 1.138-.727.456-1.322.991-1.781 1.6-.498.659-.795 1.354-.893 2.078-.099.724.007 1.479.312 2.261.309.794.913 1.456 1.801 1.996.887.54 2.061.961 3.512 1.283 1.361.302 2.702.615 4.026.938 1.322.323 2.738.607 3.935 1.01 1.415.477 2.668 1.397 3.587 2.368.92.971 1.567 2.117 1.959 3.43.369 1.238.468 2.406.309 3.504-.159 1.099-.582 2.126-1.261 3.082-.628.883-1.4 1.65-2.312 2.307-.914.657-1.989 1.185-3.234 1.595-.983.323-1.916.541-2.804.652-.888.11-1.753.116-2.589.007-1.026-.133-1.896-.446-2.603-.937s-1.248-1.17-1.616-2.045c-.558-1.323-.631-2.535-.199-3.634.431-1.099 1.361-1.909 2.776-2.404.573-.2 1.124-.304 1.649-.31.526-.007 1.036.07 1.524.224.531.168.976.425 1.329.774.353.35.62.776.801 1.28.34.946.358 1.729.063 2.349-.295.62-.912 1.086-1.857 1.411-.507.174-1 .189-1.486.044-.486-.144-.82-.443-1-.9-.163-.413-.186-.758-.068-1.035.119-.277.379-.486.78-.625l.158-.046.175-.051c.005.007-.163.285-.189.417-.026.133-.018.254.023.362.084.218.213.352.387.403.174.051.391.031.653-.059.295-.101.48-.265.555-.494.075-.228.043-.528-.096-.9-.094-.251-.238-.457-.436-.619-.196-.161-.453-.282-.768-.357-.256-.061-.529-.078-.813-.053-.285.025-.573.088-.862.19-.796.28-1.311.711-1.539 1.285-.229.574-.17 1.277.17 2.11.199.487.493.876.882 1.169.39.293.87.49 1.433.598.468.09.959.11 1.47.054.51-.055 1.033-.174 1.568-.356.682-.232 1.265-.555 1.753-.972.489-.417.876-.933 1.163-1.55.28-.602.436-1.218.466-1.849.03-.632-.071-1.295-.308-1.989-.248-.728-.748-1.43-1.509-2.102-.761-.672-1.793-1.304-3.107-1.88-1.172-.514-2.367-1-3.584-1.46-1.218-.459-2.496-.891-3.684-1.362-1.34-.532-2.495-1.24-3.381-1.963-.886-.724-1.518-1.519-1.886-2.392-.544-1.292-.761-2.533-.635-3.725.126-1.192.594-2.322 1.41-3.38.736-.955 1.708-1.81 2.911-2.553 1.203-.743 2.641-1.381 4.307-1.9 1.224-.381 2.422-.61 3.586-.691 1.165-.08 2.285 0 3.352.233 1.266.277 2.281.734 3.04 1.361.759.628 1.273 1.423 1.551 2.382zM673.431 235.393c-1.496 1.924-2.224 2.894-3.641 4.846-1.277-.347-1.919-.516-3.209-.842-2.729 9.682-3.88 14.555-5.75 24.322l-1.224.714c-3.644-6.835-5.629-10.214-9.917-16.861-2.815 8.016-4.003 12.056-5.939 20.147-.561-1.27-.845-1.905-1.418-3.172-.881.521-1.319.784-2.188 1.316l-.722-1.445c.924-.524 1.389-.783 2.325-1.295-.496-1.056-.746-1.583-1.25-2.637-.914.489-1.368.737-2.27 1.238l-.768-1.559c.964-.474 1.449-.707 2.423-1.167-.542-1.201-.815-1.801-1.367-3-.883.58-1.321.872-2.19 1.462-.46-.589-.691-.883-1.156-1.47 1.023-.665 1.539-.993 2.579-1.643-.55-1.163-.827-1.744-1.387-2.904-1.226.551-1.836.831-3.047 1.402l-.861-1.407c1.251-.619 1.881-.923 3.149-1.521-.584-1.24-.879-1.859-1.473-3.096-.941.567-1.409.853-2.337 1.431l-.866-1.28c.986-.58 1.482-.867 2.481-1.434-.692-1.443-1.041-2.164-1.746-3.602-.943.509-1.412.767-2.345 1.287-.473-.639-.711-.958-1.189-1.595 2.418-1.345 3.645-1.999 6.13-3.267 4.485 6.521 6.594 9.834 10.537 16.542 2.321-8.026 3.696-12.027 6.871-19.953 3.967 6.093 5.819 9.185 9.254 15.432 1.679-6.731 2.628-10.087 4.747-16.764 3.136.651 4.69 1.007 7.764 1.775zm-13.451 18.311c-3.164-5.516-4.857-8.247-8.46-13.631-.414.964-.617 1.447-1.017 2.413 3.761 5.806 5.521 8.751 8.794 14.7.265-1.394.401-2.09.683-3.482zM694.576 242.687c-1.296.196-1.941.299-3.227.517-.002-1.219-.22-2.246-.657-3.078s-1.104-1.481-1.992-1.921c-.481-.239-1.279-.479-2.385-.714-1.106-.235-2.52-.445-4.24-.613-.767 4.525-1.131 6.79-1.821 11.324 3.909-.103 5.868-.105 9.791-.007-1.135 1.898-1.688 2.852-2.768 4.767-2.994-.776-4.506-1.135-7.558-1.791-.765 4.59-1.125 6.887-1.799 11.486 2.625.055 3.937.106 6.557.259.983-1.273 1.483-1.906 2.504-3.163 1.497.006 2.245.016 3.744.053-.159 2.189-.239 3.284-.401 5.473-6.61-.9-9.949-1.194-16.654-1.456.263-7.204.417-10.805.77-18.006 1.038.039 1.557.063 2.594.116l.434-1.479c-1.202-.022-1.803-.029-3.005-.033l.135-2.087c1.154.067 1.73.105 2.882.19l.31-1.841c-1.243-.011-1.865-.012-3.109-.004l.081-2.034c1.178.069 1.766.108 2.942.194l.417-1.581c-1.307-.069-1.962-.099-3.271-.147l.18-3.138c1.365.087 2.735.184 4.11.293 1.374.109 2.783.192 4.119.34 1.595.176 3.072.524 4.326.9 1.253.376 2.311.834 3.171 1.353 1.13.682 2.017 1.514 2.649 2.49.632.978 1.02 2.091 1.171 3.338zm-6.744-1.656c-.355 1.806-.529 2.71-.872 4.518-1.785-.493-2.682-.729-4.489-1.18.648-1.102.976-1.652 1.643-2.748 1.481-.251 2.225-.369 3.718-.59zM718.934 246.516c-1.32.031-1.978.052-3.29.106.164-1.205.088-2.247-.235-3.123s-.898-1.601-1.723-2.148c-.447-.296-1.21-.633-2.279-1.004-1.07-.37-2.449-.754-4.138-1.133-1.383 4.376-2.055 6.569-3.362 10.963 3.903.384 5.855.626 9.754 1.214-1.391 1.734-2.073 2.607-3.411 4.365-2.878-1.141-4.335-1.684-7.282-2.711-1.39 4.44-2.062 6.665-3.361 11.125 2.603.38 3.902.594 6.491 1.071 1.153-1.135 1.739-1.698 2.928-2.813 1.491.192 2.236.297 3.726.521-.458 2.143-.687 3.215-1.148 5.357-6.472-1.718-9.756-2.422-16.382-3.511 1.248-7.085 1.894-10.625 3.23-17.695 1.026.168 1.539.255 2.563.436l.634-1.408c-1.192-.171-1.788-.252-2.983-.405l.42-2.045c1.137.21 1.705.319 2.839.545l.561-1.78c-1.235-.165-1.853-.243-3.09-.389l.359-2c1.161.214 1.741.325 2.898.556l.631-1.51c-1.291-.231-1.937-.341-3.232-.551l.608-3.078c1.345.256 2.693.521 4.047.799 1.352.278 2.742.536 4.052.848 1.563.373 2.988.9 4.185 1.428 1.198.528 2.189 1.113 2.976 1.734 1.034.816 1.805 1.749 2.302 2.792.496 1.044.731 2.193.712 3.444zm-6.5-2.481c-.601 1.74-.898 2.612-1.487 4.355-1.711-.709-2.573-1.055-4.309-1.726.796-1.009 1.198-1.511 2.012-2.511 1.509-.061 2.266-.085 3.784-.118zM748.795 248.761c-.597.943-.894 1.414-1.486 2.359-.79-.445-1.592-.851-2.403-1.218-.809-.366-1.616-.688-2.416-.966-1.021-.355-2.073-.65-3.155-.887-1.082-.236-2.192-.417-3.326-.543-2.577 9.848-3.917 14.757-6.7 24.541-2.899-1.347-4.367-1.988-7.336-3.205 3.552-9.068 5.385-13.583 9.167-22.572l-1.337-.357c-1.431-.372-2.668-.758-3.714-1.168-1.046-.41-1.888-.847-2.519-1.319-.879-.658-1.469-1.415-1.769-2.273-.3-.857-.317-1.837-.043-2.939l.104-.417 1.466-.067c-.266 1.257.068 2.32.982 3.197.914.878 2.395 1.571 4.452 2.122 1.739.465 4.38.959 7.938 1.595 3.558.637 6.203 1.316 7.922 1.925.906.321 1.71.67 2.413 1.046s1.291.76 1.76 1.146zm-17.749 10.724c.136-.401.095-.8-.128-1.197-.222-.396-.567-.664-1.031-.8-.465-.137-.912-.103-1.338.102-.426.205-.702.511-.83.915-.135.426-.085.832.146 1.221s.573.648 1.03.783c.455.134.891.103 1.307-.094.418-.199.7-.507.844-.93zm-2.123 4.991c.128-.38.122-.698-.018-.956-.141-.258-.424-.45-.85-.575-.425-.125-.779-.12-1.061.014-.281.133-.483.391-.605.773-.125.393-.11.716.045.969s.441.44.86.563c.42.123.762.121 1.03-.008.267-.129.467-.389.599-.78zm3.453-9.937c.132-.391.121-.718-.032-.979s-.457-.461-.909-.595-.828-.136-1.123-.007-.505.39-.631.783c-.129.404-.109.734.06.991.168.258.476.451.922.583s.809.137 1.089.012c.279-.123.488-.386.624-.788z"/></g><text transform="matrix(.999 .037 -.035 .957 681.975 197.381)" fill="#EA11DA" font-family="'Jokerman-Regular'" font-size="35.034" glyph-orientation-vertical="0" writing-mode="tb">H</text><text transform="matrix(1 0 0 .957 679.327 268.574)" fill="#EA11DA" font-family="'Jokerman-Regular'" font-size="35.034" glyph-orientation-vertical="0" writing-mode="tb">A</text><text transform="matrix(1 0 0 .957 679.732 302.113)" fill="#EA11DA" font-family="'Jokerman-Regular'" font-size="35.034" glyph-orientation-vertical="0" writing-mode="tb">DACHE</text></g></svg>